<svg width="20" height="20" viewBox="0 0 20 20" fill="none" xmlns="http://www.w3.org/2000/svg">
<path d="M16.6363 17.697C16.9292 17.9899 17.4041 17.9899 17.697 17.697C17.9899 17.4041 17.9899 16.9292 17.697 16.6363L16.6363 17.697ZM13.9166 8.83334C13.9166 11.6408 11.6408 13.9167 8.8333 13.9167V15.4167C12.4692 15.4167 15.4166 12.4692 15.4166 8.83334H13.9166ZM8.8333 13.9167C6.02586 13.9167 3.74997 11.6408 3.74997 8.83334H2.24997C2.24997 12.4692 5.19743 15.4167 8.8333 15.4167V13.9167ZM3.74997 8.83334C3.74997 6.02589 6.02586 3.75 8.8333 3.75V2.25C5.19743 2.25 2.24997 5.19746 2.24997 8.83334H3.74997ZM8.8333 3.75C11.6408 3.75 13.9166 6.02589 13.9166 8.83334H15.4166C15.4166 5.19746 12.4692 2.25 8.8333 2.25V3.75ZM12.4696 13.5303L16.6363 17.697L17.697 16.6363L13.5303 12.4697L12.4696 13.5303Z" fill="#807D7E"/>
</svg>
